STARTFONT 2.1
COMMENT CDC 6612 console font
COMMENT   
FONT -AK Design-Seymour-Medium-R-Normal-Sans-8-80-100-100-M-80-CDC6000-1
SIZE 8 100 100
FONTBOUNDINGBOX 8 8 -1 -1
STARTPROPERTIES 25
FONTNAME_REGISTRY ""
FOUNDRY "AK Design"
FAMILY_NAME "Seymour"
WEIGHT_NAME "Medium"
SLANT "R"
SETWIDTH_NAME "Normal"
ADD_STYLE_NAME "Sans"
PIXEL_SIZE 8
POINT_SIZE 80
RESOLUTION_X 100
RESOLUTION_Y 100
SPACING "M"
AVERAGE_WIDTH 80
CHARSET_REGISTRY "CDC6000"
CHARSET_ENCODING "1"
COPYRIGHT "Copyright Paul Koning, 2003."
FACE_NAME "Seymour"
X_HEIGHT 7
CAP_HEIGHT 7
WEIGHT 10
RESOLUTION 100
QUAD_WIDTH 8
FONT_ASCENT 7
FONT_DESCENT 1
_XMBDFED_INFO "Edited with xmbdfed 4.5."
ENDPROPERTIES
CHARS 48
STARTCHAR char0
ENCODING 0
SWIDTH 720 0
DWIDTH 8 0
BBX 8 8 0 0
BITMAP
00
00
00
00
00
00
00
00
ENDCHAR
STARTCHAR char1
ENCODING 1
SWIDTH 720 0
DWIDTH 8 0
BBX 8 8 0 0
BITMAP
30
48
48
78
84
84
84
00
ENDCHAR
STARTCHAR char2
ENCODING 2
SWIDTH 720 0
DWIDTH 8 0
BBX 8 8 0 0
BITMAP
F8
84
84
F8
84
84
F8
00
ENDCHAR
STARTCHAR char3
ENCODING 3
SWIDTH 720 0
DWIDTH 8 0
BBX 8 8 0 0
BITMAP
30
48
84
80
80
44
38
00
ENDCHAR
STARTCHAR char4
ENCODING 4
SWIDTH 720 0
DWIDTH 8 0
BBX 8 8 0 0
BITMAP
F8
84
84
84
84
88
F0
00
ENDCHAR
STARTCHAR char5
ENCODING 5
SWIDTH 720 0
DWIDTH 8 0
BBX 8 8 0 0
BITMAP
FC
80
80
F0
80
80
FC
00
ENDCHAR
STARTCHAR char6
ENCODING 6
SWIDTH 720 0
DWIDTH 8 0
BBX 8 8 0 0
BITMAP
FC
80
80
F0
80
80
80
00
ENDCHAR
STARTCHAR char7
ENCODING 7
SWIDTH 720 0
DWIDTH 8 0
BBX 8 8 0 0
BITMAP
30
48
84
90
88
44
38
00
ENDCHAR
STARTCHAR char8
ENCODING 8
SWIDTH 720 0
DWIDTH 8 0
BBX 8 8 0 0
BITMAP
84
84
84
FC
84
84
84
00
ENDCHAR
STARTCHAR char9
ENCODING 9
SWIDTH 720 0
DWIDTH 8 0
BBX 8 8 0 0
BITMAP
20
20
20
20
20
20
20
00
ENDCHAR
STARTCHAR char10
ENCODING 10
SWIDTH 720 0
DWIDTH 8 0
BBX 8 8 0 0
BITMAP
08
08
08
08
88
48
30
00
ENDCHAR
STARTCHAR char11
ENCODING 11
SWIDTH 720 0
DWIDTH 8 0
BBX 8 8 0 0
BITMAP
88
90
A0
C0
A0
90
88
00
ENDCHAR
STARTCHAR char12
ENCODING 12
SWIDTH 720 0
DWIDTH 8 0
BBX 8 8 0 0
BITMAP
80
80
80
80
80
80
FC
00
ENDCHAR
STARTCHAR char13
ENCODING 13
SWIDTH 720 0
DWIDTH 8 0
BBX 8 8 0 0
BITMAP
84
CC
AC
94
84
84
84
00
ENDCHAR
STARTCHAR char14
ENCODING 14
SWIDTH 720 0
DWIDTH 8 0
BBX 8 8 0 0
BITMAP
84
C4
A4
94
8C
84
84
00
ENDCHAR
STARTCHAR char15
ENCODING 15
SWIDTH 720 0
DWIDTH 8 0
BBX 8 8 0 0
BITMAP
18
24
44
84
84
88
70
00
ENDCHAR
STARTCHAR char16
ENCODING 16
SWIDTH 720 0
DWIDTH 8 0
BBX 8 8 0 0
BITMAP
F8
84
98
E0
80
80
80
00
ENDCHAR
STARTCHAR char17
ENCODING 17
SWIDTH 720 0
DWIDTH 8 0
BBX 8 8 0 0
BITMAP
18
24
44
84
94
88
74
00
ENDCHAR
STARTCHAR char18
ENCODING 18
SWIDTH 720 0
DWIDTH 8 0
BBX 8 8 0 0
BITMAP
F8
84
98
E0
90
88
84
00
ENDCHAR
STARTCHAR char19
ENCODING 19
SWIDTH 720 0
DWIDTH 8 0
BBX 8 8 0 0
BITMAP
78
84
80
60
18
04
F8
00
ENDCHAR
STARTCHAR char20
ENCODING 20
SWIDTH 720 0
DWIDTH 8 0
BBX 8 8 0 0
BITMAP
FC
10
10
10
10
10
10
00
ENDCHAR
STARTCHAR char21
ENCODING 21
SWIDTH 720 0
DWIDTH 8 0
BBX 8 8 0 0
BITMAP
84
84
84
84
84
44
38
00
ENDCHAR
STARTCHAR char22
ENCODING 22
SWIDTH 720 0
DWIDTH 8 0
BBX 8 8 0 0
BITMAP
84
84
84
48
48
30
30
00
ENDCHAR
STARTCHAR char23
ENCODING 23
SWIDTH 720 0
DWIDTH 8 0
BBX 8 8 0 0
BITMAP
84
84
84
94
AC
CC
84
00
ENDCHAR
STARTCHAR char24
ENCODING 24
SWIDTH 720 0
DWIDTH 8 0
BBX 8 8 0 0
BITMAP
84
84
48
30
48
84
84
00
ENDCHAR
STARTCHAR char25
ENCODING 25
SWIDTH 720 0
DWIDTH 8 0
BBX 8 8 0 0
BITMAP
84
44
28
10
10
10
10
00
ENDCHAR
STARTCHAR char26
ENCODING 26
SWIDTH 720 0
DWIDTH 8 0
BBX 8 8 0 0
BITMAP
FC
08
10
20
40
80
FC
00
ENDCHAR
STARTCHAR char27
ENCODING 27
SWIDTH 720 0
DWIDTH 8 0
BBX 8 8 0 0
BITMAP
78
84
84
84
84
84
78
00
ENDCHAR
STARTCHAR char28
ENCODING 28
SWIDTH 720 0
DWIDTH 8 0
BBX 8 8 0 0
BITMAP
20
60
20
20
20
20
20
00
ENDCHAR
STARTCHAR char29
ENCODING 29
SWIDTH 720 0
DWIDTH 8 0
BBX 8 8 0 0
BITMAP
38
C4
04
18
60
80
FC
00
ENDCHAR
STARTCHAR char30
ENCODING 30
SWIDTH 720 0
DWIDTH 8 0
BBX 8 8 0 0
BITMAP
78
84
04
18
04
84
78
00
ENDCHAR
STARTCHAR char31
ENCODING 31
SWIDTH 720 0
DWIDTH 8 0
BBX 8 8 0 0
BITMAP
10
30
50
90
FC
10
10
00
ENDCHAR
STARTCHAR char32
ENCODING 32
SWIDTH 720 0
DWIDTH 8 0
BBX 8 8 0 0
BITMAP
FC
80
F0
08
04
84
78
00
ENDCHAR
STARTCHAR char33
ENCODING 33
SWIDTH 720 0
DWIDTH 8 0
BBX 8 8 0 0
BITMAP
38
44
80
F8
84
84
78
00
ENDCHAR
STARTCHAR char34
ENCODING 34
SWIDTH 720 0
DWIDTH 8 0
BBX 8 8 0 0
BITMAP
FC
08
10
20
20
40
80
00
ENDCHAR
STARTCHAR char35
ENCODING 35
SWIDTH 720 0
DWIDTH 8 0
BBX 8 8 0 0
BITMAP
78
84
84
78
84
84
78
00
ENDCHAR
STARTCHAR char36
ENCODING 36
SWIDTH 720 0
DWIDTH 8 0
BBX 8 8 0 0
BITMAP
78
84
84
7C
04
88
70
00
ENDCHAR
STARTCHAR char37
ENCODING 37
SWIDTH 720 0
DWIDTH 8 0
BBX 8 8 0 0
BITMAP
10
10
10
FC
10
10
10
00
ENDCHAR
STARTCHAR char38
ENCODING 38
SWIDTH 720 0
DWIDTH 8 0
BBX 8 8 0 0
BITMAP
00
00
00
FC
00
00
00
00
ENDCHAR
STARTCHAR char39
ENCODING 39
SWIDTH 720 0
DWIDTH 8 0
BBX 8 8 0 0
BITMAP
00
50
20
F8
20
50
00
00
ENDCHAR
STARTCHAR char40
ENCODING 40
SWIDTH 720 0
DWIDTH 8 0
BBX 8 8 0 0
BITMAP
04
08
10
20
20
40
80
00
ENDCHAR
STARTCHAR char41
ENCODING 41
SWIDTH 720 0
DWIDTH 8 0
BBX 8 8 0 0
BITMAP
20
40
40
40
40
40
20
00
ENDCHAR
STARTCHAR char42
ENCODING 42
SWIDTH 720 0
DWIDTH 8 0
BBX 8 8 0 0
BITMAP
20
10
10
10
10
10
20
00
ENDCHAR
STARTCHAR char43
ENCODING 43
SWIDTH 720 0
DWIDTH 8 0
BBX 8 8 0 0
BITMAP
00
00
00
00
00
00
00
00
ENDCHAR
STARTCHAR char44
ENCODING 44
SWIDTH 720 0
DWIDTH 8 0
BBX 8 8 0 0
BITMAP
00
00
FC
00
FC
00
00
00
ENDCHAR
STARTCHAR char45
ENCODING 45
SWIDTH 720 0
DWIDTH 8 0
BBX 8 8 0 0
BITMAP
00
00
00
00
00
00
00
00
ENDCHAR
STARTCHAR char46
ENCODING 46
SWIDTH 720 0
DWIDTH 8 0
BBX 8 8 0 0
BITMAP
00
00
00
00
30
30
20
40
ENDCHAR
STARTCHAR char47
ENCODING 47
SWIDTH 720 0
DWIDTH 8 0
BBX 8 8 0 0
BITMAP
00
00
00
00
00
60
60
00
ENDCHAR
ENDFONT
